<svg xmlns="http://www.w3.org/2000/svg" viewBox="0 0 1200 300" fill-rule="evenodd" clip-rule="evenodd">
  <path fill="#E62B1E" d="M0 0h1200v300H0z"/>
  <path d="M200.5 96.7h69.4v19.1h-22.9v69.5h-23.8v-69.5h-22.7V96.7zm95.7 0h23.8v32.2h32.1V96.7h23.7v88.6h-23.7v-36.1h-32.1v36.1h-23.8V96.7zm110.4 0h62.1v19.1h-38.4v15.3h35.2v18.8h-35.2v16.2h38.4v19.2h-62.1V96.7z" fill="#FFF"/>
  <path d="M1034.1 79.9c-39.7 0-71.9 32.2-71.9 71.9s32.2 71.9 71.9 71.9 71.9-32.2 71.9-71.9-32.2-71.9-71.9-71.9zm-6.8 115.9c-2.4-.1-4.7-.3-6.9-.7-10.3-1.6-18.3-6.3-24.2-14.6-6.2-8.8-8.1-18.3-6.4-28.5.9-5.4 2.8-10.4 5.8-15 5.7-8.7 13.3-14.6 24-16.8 8.9-1.9 17.7-1.3 26.1 2.2 10.6 4.5 17.9 12.2 21.9 22.8 4.1 10.8 4.1 21.8-.1 32.5-4.3 10.8-11.8 18.5-22.6 22.9-5.4 2.2-11 3.4-16.8 3.6h-1v-9.2c6.4-.2 12.1-1.4 17.4-4.5 8.6-5 14-12.2 16.2-21.9 1.9-8.1 1.3-16.2-2-24-4.5-10.5-12.2-17.3-23.3-20.3-4.9-1.3-9.9-1.7-15-1.2-10.2 1.1-18.6 5.8-24.8 14-6.4 8.5-8.7 18.2-7.2 28.7 1.6 11.8 7.4 20.8 18.1 26.6 6.2 3.4 13 4.8 20.1 4.6.8 0 1.5 0 2.2.1l-1.5 7.7zm-246-70.4h20.1v-34.9h36v107.6h-36v-38.9h-20.1v38.9h-36V90.5h36v34.9zm67.7-34.9h64v34.2h-28v69.2h-36V124.7h-28V90.5h28zm93.8 0h36v107.6h-36V90.5zm39.2 0h91.3v33.6H1018v17.5h38.7v33h-38.7v23.5h-36V90.5zm217.2 0h48.4c6 0 11.9 1.4 17.6 4.1 5.7 2.7 10.3 6.9 13.9 12.6 3.6 5.7 5.4 11.9 5.4 18.6 0 6.8-1.8 13-5.4 18.6-3.6 5.7-8.2 9.9-13.9 12.5-5.7 2.6-11.6 3.9-17.6 3.9h-12.4v37.2h-36V90.5zm36 34.3h12.4c2 0 3.7.6 5.2 1.9 1.4 1.3 2.1 2.8 2.1 4.7 0 1.9-.7 3.4-2.1 4.7-1.5 1.3-3.2 1.9-5.2 1.9h-12.4v-13.2z" fill="#FFF"/>
</svg>
